<svg width="16" height="16" version="1.1" viewBox="0 0 4.2333 4.2333" xmlns="http://www.w3.org/2000/svg"><g transform="translate(0 -292.77)"><path d="m1.5586 292.96c-0.19234 0.017-0.34136 0.12823-0.45703 0.25781-0.11567 0.12958-0.21004 0.28892-0.29688 0.46875-0.17368 0.35966-0.31585 0.80689-0.43359 1.25-0.23549 0.88622-0.36719 1.7559-0.36719 1.7559a0.26461 0.26461 0 1 0 0.52148 0.0801s0.13131-0.85022 0.35742-1.7012c0.11306-0.42548 0.25125-0.84949 0.39844-1.1543 0.073595-0.1524 0.15073-0.27387 0.21484-0.3457 0.00382-4e-3 0.00221-2e-3 0.00586-6e-3 0.00409 0.0307 0.010128 0.0342 0.011719 0.0742 0.00887 0.22295-0.021484 0.56301-0.050781 0.91211-0.029297 0.34909-0.059319 0.70887-0.041016 1.0117 0.00915 0.15142 0.028164 0.28947 0.083984 0.42187s0.18535 0.27882 0.36328 0.30664c0.12975 0.0203 0.27053-0.0175 0.36719-0.0859 0.096658-0.0684 0.15828-0.15522 0.20898-0.24414 0.10141-0.17783 0.16072-0.38065 0.21875-0.57422 0.055038-0.1836 0.10823-0.35215 0.1582-0.46289 0.026942 0.0831 0.052126 0.18307 0.076172 0.30665 0.029273 0.15044 0.057479 0.30917 0.099609 0.45312 0.021065 0.072 0.042916 0.14168 0.085937 0.21289 0.043022 0.0712 0.11897 0.15934 0.24805 0.18945 0.19398 0.0453 0.34387-0.0558 0.43945-0.14453 0.095586-0.0888 0.16756-0.19052 0.23047-0.29101 0.12582-0.20098 0.21094-0.40235 0.21094-0.40235a0.26556 0.26556 0 1 0-0.48828-0.20898s-0.073816 0.17344-0.17188 0.33008c-0.022329 0.0357-0.04167 0.0538-0.064453 0.084-0.022394-0.093-0.045881-0.19866-0.070312-0.32422-0.030609-0.15731-0.061768-0.31957-0.12305-0.4707-0.030639-0.0756-0.068602-0.15029-0.13281-0.2207-0.06421-0.0704-0.1703-0.13591-0.28906-0.14453-0.13343-0.01-0.26416 0.0511-0.3457 0.12695-0.081544 0.0758-0.13134 0.16152-0.17383 0.25-0.084971 0.17695-0.13865 0.37738-0.19531 0.5664-0.056663 0.18903-0.11723 0.36707-0.17188 0.46289-0.00206 4e-3 -0.00189 3e-3 -0.00391 6e-3 -0.011759-0.0471-0.026117-0.0908-0.03125-0.17578-0.014477-0.23952 0.00993-0.58644 0.039063-0.93359 0.029134-0.34715 0.062099-0.69391 0.050781-0.97852-0.00566-0.1423-0.016702-0.26803-0.072266-0.39648-0.027782-0.0642-0.070759-0.13284-0.14453-0.1875-0.073773-0.0547-0.17744-0.082-0.26562-0.0742z" color="#ffffff" fill="#ffffff" color-rendering="auto" dominant-baseline="auto" image-rendering="auto" shape-rendering="auto" solid-color="#ffffff" style="font-feature-settings:normal;font-variant-alternates:normal;font-variant-caps:normal;font-variant-ligatures:normal;font-variant-numeric:normal;font-variant-position:normal;isolation:auto;mix-blend-mode:normal;shape-padding:0;text-decoration-color:#ffffff;text-decoration-line:none;text-decoration-style:solid;text-indent:0;text-orientation:mixed;text-transform:none;white-space:normal"/></g></svg>
