<svg height='200' width='200'  fill="#000000" xmlns="http://www.w3.org/2000/svg" xmlns:xlink="http://www.w3.org/1999/xlink" version="1.1" x="0px" y="0px" viewBox="0 0 100 100" enable-background="new 0 0 100 100" xml:space="preserve"><g><path fill-rule="evenodd" clip-rule="evenodd" d="M49.999,20c-16.571,0-29.998,13.432-29.998,29.999   C20.001,66.568,33.428,80,49.999,80c16.567,0,30-13.432,30-30.001C79.999,33.432,66.566,20,49.999,20z M49.999,71.429   c-11.837,0-21.43-9.595-21.43-21.43c0-11.833,9.593-21.428,21.43-21.428c11.833,0,21.427,9.595,21.427,21.428   C71.426,61.834,61.832,71.429,49.999,71.429z"></path><path fill-rule="evenodd" clip-rule="evenodd" d="M52.142,49.112V34.53c0.001-0.548-0.208-1.097-0.627-1.516   c-0.837-0.838-2.192-0.838-3.031,0c-0.418,0.419-0.628,0.968-0.627,1.516v15.324h0.014c-0.04,0.596,0.159,1.204,0.613,1.659l0,0   v0.001l5.468,5.469c0.389,0.389,0.924,0.629,1.517,0.629c1.184,0,2.143-0.96,2.143-2.144c0-0.592-0.241-1.129-0.628-1.516   L52.142,49.112z"></path></g></svg>